<?xml version="1.0" encoding="UTF-8"?>
<svg id="Layer_1" data-name="Layer 1" xmlns="http://www.w3.org/2000/svg" viewBox="0 0 114.99 229.58">
  <defs>
    <style>
      .cls-1 {
        fill: #a1867f;
      }

      .cls-2 {
        fill: #f9e79f;
      }

      .cls-3 {
        fill: #f4a6a6;
      }

      .cls-4 {
        fill: #b4e1c5;
      }
    </style>
  </defs>
  <g>
    <path class="cls-1" d="M28.33,133.76c-8.29-1.92-17.89,2.54-22.61,9.43-2.21,3.22-6.28,7.82-2.98,20,4.71,17.38,9.55,34.77,14.72,52.05,2,6.24,6.85,12.97,14.02,12.84,14.51-1.1,12.58-23.15,21.58-25.49,6.49-.85,8.49,6.92,10.29,11.68,2.99,7.99,10.8,15,19.7,13.03,4.45-.8,7.62-4.29,9.45-8.26,9.63-19.31,16.43-40.08,20.15-61.35,1.01-5.83,2.04-13.17-2.87-17.49-10.5-8.11-31.35-10.9-35.88,5.05-1.96,6.67-.58,13.8-1.53,20.59-.27,3.53-2.62,9.71-6.99,7.21-2.57-2.3-3.54-6.23-7.1-7.63-3.37-1.7-7.77-.94-10.28,1.92-1.97,1.86-3.23,6.71-6.59,5.73-1.69-.68-2.39-2.82-2.73-4.52-1.67-8.37,2.89-11.91,1.85-20.6-.24-2.02-.78-6.07-3.88-9.5-3.05-3.38-6.93-4.33-8.32-4.65Z"/>
    <path class="cls-1" d="M28.73,132.32c-7.94-1.75-16.54,1.48-22.05,7.32-3.69,3.92-6.41,8.83-6.66,14.28-.21,4.63,1.11,9.08,2.31,13.5,1.43,5.27,2.88,10.53,4.34,15.78,2.93,10.52,5.93,21.02,9.06,31.48,2.09,7,7.23,14.86,15.4,14.89,5.78.02,10.1-4.17,12.64-8.97,2.36-4.45,3.47-9.58,6.27-13.79,1.05-1.58,2.44-2.95,4.4-2.78,3.01.25,4.63,3.37,5.68,5.83,1.36,3.19,2.23,6.53,4.11,9.49,2.11,3.31,5.02,6.25,8.56,8,3.62,1.79,7.67,2.23,11.58,1.17s6.97-4.1,8.86-7.6c2.34-4.33,4.32-8.92,6.24-13.45,1.97-4.63,3.79-9.32,5.45-14.08,3.33-9.55,6.01-19.33,8.03-29.24.87-4.26,1.81-8.61,2.02-12.96.18-3.8-.43-7.75-2.89-10.78-1.9-2.36-4.97-3.94-7.7-5.16s-5.83-2.21-8.91-2.69c-5.78-.9-12.19-.42-17.01,3.22-6.66,5.04-7.22,13.59-7.21,21.3,0,3.97.32,8.48-1.25,12.23-.42,1.01-1.16,2.48-2.34,2.74-1.53.34-2.53-1.53-3.23-2.58-1.02-1.52-2.02-3.09-3.48-4.24s-3.43-1.94-5.34-2.17c-3.84-.45-7.45,1.31-9.69,4.4-.85,1.17-1.46,2.6-2.53,3.61-1.2,1.13-2.2.23-2.74-1.09-1.45-3.55-.81-7.54.13-11.11,1-3.79,1.7-7.46,1.2-11.39s-1.8-7.58-4.56-10.46c-2.33-2.43-5.43-3.96-8.68-4.72-1.88-.44-2.68,2.45-.8,2.89,3.35.78,6.47,2.45,8.5,5.31s2.81,6.74,2.75,10.28-1.36,6.79-1.99,10.23-.69,7.95,1.21,11.16,5.54,3.04,7.72.32c.92-1.14,1.55-2.48,2.46-3.62,1.1-1.39,2.56-2.35,4.3-2.73,1.82-.4,3.66-.03,5.29.82s2.53,2.32,3.48,3.74c.9,1.35,1.9,3.07,3.4,3.81,1.41.7,3.01.76,4.42.03,2.57-1.33,3.8-4.7,4.24-7.37.75-4.56.45-9.19.58-13.79.2-6.79,1.97-13.87,8.73-16.81,5.09-2.22,11.13-1.63,16.3-.05,2.75.85,5.39,2.04,7.82,3.6,1.36.87,2.54,1.81,3.37,3.23.92,1.56,1.33,3.37,1.45,5.16.26,3.91-.56,7.85-1.28,11.67-.91,4.82-1.97,9.61-3.2,14.36-2.42,9.42-5.46,18.69-9.08,27.72-1.83,4.57-3.83,9.07-5.97,13.51-1.74,3.6-3.44,7.31-7.18,9.2-7.31,3.7-15.25-1.69-18.89-7.93-2.95-5.05-3.47-13.32-9.78-15.61-5.17-1.88-8.72,2.52-10.66,6.67-2.12,4.52-3.41,9.47-6.31,13.59-3.3,4.69-9.24,6.41-14.14,2.91-2.9-2.07-4.94-5.38-6.16-8.68-1.74-4.68-2.91-9.64-4.3-14.43-2.94-10.17-5.79-20.37-8.59-30.58-1.92-7.03-5.37-15.42-2.1-22.59,2.46-5.39,7.13-9.92,12.64-12.06,3.49-1.36,7.31-1.87,10.99-1.06,1.88.41,2.69-2.48.8-2.89Z"/>
  </g>
  <g>
    <path class="cls-3" d="M98.1,145.38c-2.84-.97-5.26-.04-6.05.28-1.04.42-3.66,1.38-4.39,3.84-.55,1.83.1,3.78.77,5.56.66,1.75,1.42,3.59,2.93,4.7,1.99,1.47,4.71,1.28,7.17,1.03.66-.07,1.35-.15,1.9-.52.72-.49,1.02-1.23,1.18-1.64,1.56-4.11,2.34-6.16,1.57-8.35-1.25-3.53-4.77-4.79-5.08-4.9Z"/>
    <path class="cls-3" d="M98.5,143.93c-3.4-1.09-7.42-.14-10.19,2.09-1.79,1.44-2.57,3.64-2.28,5.9s1.2,4.73,2.38,6.69,3.13,3.35,5.48,3.69c1.18.17,2.35.17,3.53.08s2.39-.13,3.45-.65,1.69-1.47,2.11-2.51.82-2.14,1.19-3.22c.56-1.66.99-3.39.71-5.15-.53-3.25-3.35-5.89-6.37-6.94-1.83-.63-2.61,2.27-.8,2.89.08.03.17.06.25.09.09.03.23.11-.14-.06.09.04.18.08.26.12.44.22.86.45,1.27.73.91.62,1.84,1.62,2.32,2.76.45,1.08.39,1.95.13,3.05-.39,1.62-.97,3.33-1.67,4.85-.21.45-.62.78-1.28.89-.91.15-1.88.19-2.81.21-1.63.02-3.26-.23-4.41-1.49s-1.73-3.1-2.22-4.68-.79-3.35.47-4.64c.46-.47,1-.81,1.6-1.11.14-.07.28-.14.42-.2.06-.03.45-.19.15-.07.2-.08.4-.16.6-.24,1.67-.64,3.35-.76,5.07-.21,1.84.59,2.63-2.31.8-2.89Z"/>
  </g>
  <g>
    <path class="cls-4" d="M91.78,168.11c-2.28.12-3.87,1.63-5.36,3.06-1.01.96-1.87,1.84-2.18,3.25-.29,1.32.19,2.68.78,3.88.95,1.92,2.28,3.76,4.19,4.72,2.51,1.26,6.13.66,8.37-1.8,2.4-2.64,2.11-6.28.94-8.65-1.18-2.4-3.81-4.61-6.74-4.46Z"/>
    <path class="cls-4" d="M91.78,166.61c-2.07.16-3.73,1.09-5.28,2.44-1.34,1.16-2.75,2.43-3.43,4.1-.86,2.12-.2,4.27.81,6.21.87,1.69,2.05,3.24,3.6,4.36,2.87,2.06,6.96,1.81,9.78-.24,3.09-2.25,4.26-6.06,3.3-9.72-1.02-3.88-4.62-7.29-8.78-7.16-1.93.06-1.93,3.06,0,3,5.14-.17,8.09,7.1,4.58,10.71-1.55,1.6-4.13,2.35-6.22,1.48-1.23-.51-2.2-1.56-2.92-2.66-.76-1.16-1.75-2.77-1.57-4.21s1.43-2.36,2.39-3.25c1.05-.98,2.24-1.97,3.74-2.08.81-.06,1.5-.65,1.5-1.5,0-.76-.69-1.56-1.5-1.5Z"/>
  </g>
  <g>
    <path class="cls-2" d="M78.72,188.9c-.93.51-1.87,1.02-2.72,1.65-2.42,1.77-4.17,4.54-4.37,7.53s1.31,6.11,3.94,7.54c2.59,1.4,6,.97,8.31-.87s3.47-4.93,3.18-7.87-1.96-5.66-4.31-7.44c-1.14-.86-2.72-1.52-3.94-.78"/>
    <path class="cls-2" d="M77.97,187.61c-1.88,1.03-3.7,2.15-5.08,3.82-1.25,1.51-2.21,3.3-2.57,5.24-.7,3.8.77,7.88,4.09,10s8.02,1.45,10.93-1.18,3.93-7.04,2.83-10.78c-.63-2.15-1.9-4.15-3.55-5.66-1.78-1.63-4.21-2.92-6.56-1.68-1.71.9-.19,3.49,1.51,2.59,1.13-.6,2.69.94,3.39,1.66,1,1.02,1.79,2.27,2.23,3.63.84,2.61.37,5.63-1.54,7.67-1.81,1.93-4.93,2.7-7.32,1.4s-3.5-4.04-3.17-6.61c.19-1.51.89-2.99,1.84-4.16,1.21-1.5,2.81-2.44,4.48-3.35s.18-3.52-1.51-2.59h0Z"/>
  </g>
</svg>