<?xml version="1.0" encoding="UTF-8"?>
<svg id="Layer_4" data-name="Layer 4" xmlns="http://www.w3.org/2000/svg" viewBox="0 0 209.17 49.79">
  <defs>
    <style>
      .cls-1 {
        fill: #a1867f;
      }

      .cls-2 {
        fill: #f9e79f;
      }

      .cls-3 {
        fill: #f4a6a6;
      }

      .cls-4 {
        fill: #faf3e3;
      }

      .cls-5 {
        fill: #b4e1c5;
      }
    </style>
  </defs>
  <g>
    <g>
      <path class="cls-1" d="M18.47,1.65c-5.24-.67-11.32.89-14.31,3.28-1.4,1.12-3.98,2.72-1.89,6.96,2.98,6.05,6.05,12.11,9.32,18.12,1.27,2.17,4.34,4.52,8.87,4.47,9.19-.38,7.96-8.06,13.66-8.88,4.11-.29,5.37,2.41,6.51,4.07,1.89,2.78,6.84,5.22,12.47,4.54,2.82-.28,4.82-1.49,5.98-2.88,6.1-6.72,10.4-13.96,12.75-21.37.64-2.03,1.29-4.58-1.82-6.09-6.65-2.82-19.84-3.8-22.7,1.76-1.24,2.32-.37,4.81-.97,7.17-.17,1.23-1.66,3.38-4.43,2.51-1.63-.8-2.24-2.17-4.49-2.66-2.13-.59-4.92-.33-6.51.67-1.25.65-2.05,2.34-4.17,1.99-1.07-.24-1.51-.98-1.72-1.57-1.05-2.92,1.83-4.15,1.17-7.18-.15-.71-.49-2.11-2.45-3.31-1.93-1.18-4.39-1.51-5.27-1.62Z"/>
      <path class="cls-1" d="M18.47.15c-4.14-.48-8.49.18-12.31,1.87C3.82,3.07.84,5,.16,7.67c-.51,1.99.27,3.88,1.14,5.64,1.14,2.31,2.29,4.62,3.46,6.92s2.29,4.47,3.46,6.69c.97,1.84,1.83,3.88,3.25,5.44,4.61,5.07,13.44,4.79,17.73-.47,1.23-1.51,2.3-3.8,4.22-4.55,1.25-.49,2.85-.26,3.91.56.95.73,1.48,1.83,2.17,2.77,4.55,6.21,15.8,7.19,20.96,1.4,3.1-3.49,5.92-7.25,8.24-11.31,2.02-3.53,3.88-7.42,4.87-11.38.37-1.5.47-3.13-.31-4.52-.87-1.56-2.46-2.31-4.07-2.88-3.1-1.1-6.45-1.65-9.73-1.81-6.02-.3-13.99.98-14.36,8.42-.07,1.46.4,3.69-.69,4.88-1.26,1.37-2.68-.06-3.75-.87-2.94-2.23-7.87-2.39-10.93-.28-.75.52-2.38,2.49-3.24,1.1-.75-1.22.5-2.81.91-3.92,1.27-3.42-.86-6.67-3.97-8.06-1.59-.71-3.25-1.05-4.96-1.28-1.91-.25-1.89,2.76,0,3,2.32.3,6.55,1.33,6.31,4.5-.1,1.29-1.06,2.39-1.35,3.64-.35,1.5-.03,3.3,1.07,4.44,1.22,1.25,3.17,1.43,4.71.68,1.28-.62,2.1-1.82,3.5-2.24,1.67-.5,3.79-.49,5.38.29,1.49.74,2.42,2.17,4.15,2.47,3.29.56,5.41-1.95,5.76-4.96.22-1.95-.32-4.21.82-5.95.55-.84,1.45-1.41,2.36-1.81,2.55-1.11,5.55-1.19,8.28-1.06,2.98.15,5.98.68,8.8,1.66,1.16.4,2.49.91,2.6,2.31s-.65,3.06-1.13,4.36c-1.4,3.83-3.31,7.47-5.55,10.88-1.24,1.89-2.59,3.71-4.03,5.46-1.15,1.38-2.29,3.01-3.88,3.91-3.3,1.87-8.09,1.34-11.35-.38-1.28-.68-2.41-1.55-3.21-2.77-.66-1-1.32-2.03-2.24-2.81-2.22-1.88-5.58-2.25-8.11-.75-1.83,1.08-2.86,2.94-4.14,4.57-1.62,2.07-3.72,3.23-6.37,3.39-3.27.2-6.58-1.21-8.19-4.14-2.3-4.19-4.47-8.45-6.61-12.72-.98-1.96-2.37-4.04-2.92-6.17-.33-1.27.07-2.2,1.01-3.05,2.34-2.12,5.42-3.16,8.5-3.64,1.93-.3,3.9-.32,5.84-.09s1.9-2.78,0-3Z"/>
    </g>
    <g>
      <path class="cls-3" d="M62.63,5.7c-1.8-.34-3.33-.01-3.83.1-.66.15-2.31.48-2.78,1.34-.35.64.06,1.32.49,1.94.42.61.9,1.25,1.86,1.64,1.26.51,2.98.45,4.54.36.42-.02.85-.05,1.2-.18.46-.17.65-.43.75-.57.99-1.43,1.48-2.15.99-2.91-.79-1.23-3.02-1.67-3.22-1.71Z"/>
      <path class="cls-3" d="M63.02,4.25c-1.97-.35-4.08-.22-5.97.46-1.12.4-2.29,1.07-2.59,2.32-.33,1.41.62,2.81,1.52,3.81,1.77,1.96,4.68,1.88,7.1,1.72.7-.05,1.43-.13,2.05-.5.57-.34.91-.83,1.28-1.36.64-.94,1.3-1.98,1.07-3.18-.38-1.93-2.71-2.93-4.45-3.26-.77-.15-1.66.21-1.85,1.05-.17.74.22,1.69,1.05,1.85.38.07.76.18,1.13.31.11.04.46.19.16.06.14.07.29.13.42.21s.27.17.41.25c-.23-.13-.09-.08-.02-.02.08.08.16.17.25.24-.3-.24,0-.1-.03-.03l.05.08-.07-.19c.02.05.04.11.05.17-.06-.39-.03-.25-.04-.14.02-.42,0-.09-.06.07.09-.3.06-.13,0-.05-.07.11-.13.23-.19.34-.23.37-.53.72-.74,1.1-.09.17.09-.12.1-.13-.17.18.03-.03.07-.03-.11-.01-.15.1-.02.04,0,0-.42.12-.26.09-.93.17-1.98.13-2.92.09-.78-.04-1.44-.12-2.1-.57.2.14-.18-.18-.23-.22-.07-.07-.36-.44-.18-.2-.23-.31-.53-.76-.64-1.02.06.14-.06.19.01-.03-.01.04-.07.5-.02.22,0,.02-.22.28-.03.07.07-.08.19-.09-.04.03.14-.07.27-.16.41-.23.07-.04.26-.09-.02,0,.1-.03.19-.07.29-.1.56-.19,1.15-.32,1.74-.42.07-.01.14-.02.21-.03.16-.03-.27.02.03,0,.24-.02.49-.04.73-.05.52-.02,1.11.01,1.55.09.77.14,1.65-.21,1.85-1.05.17-.73-.22-1.7-1.05-1.85Z"/>
    </g>
    <g>
      <path class="cls-5" d="M58.63,13.61c-1.44.04-2.45.57-3.39,1.07-.64.33-1.19.64-1.38,1.13-.18.46.12.93.5,1.35.6.67,1.44,1.31,2.65,1.64,1.59.44,3.88.23,5.3-.63,1.52-.92,1.34-2.19.6-3.01-.75-.84-2.41-1.61-4.27-1.55Z"/>
      <path class="cls-5" d="M58.63,12.11c-1.16.05-2.2.34-3.25.82-.84.38-1.8.82-2.41,1.53-2,2.29.96,4.76,2.97,5.57,1.81.72,4.09.68,5.91,0,1.04-.38,2.1-.97,2.67-1.96s.55-2.09.07-3.09c-1.01-2.07-3.82-2.91-5.95-2.87-.78.01-1.54.68-1.5,1.5s.66,1.51,1.5,1.5c.22,0,.43,0,.65.01.08,0,.16.01.24.02.26.03-.19-.04.06.01.39.08.76.2,1.14.32.23.07-.18-.09.03,0,.06.03.12.06.18.09.15.08.3.16.45.25.07.04.13.1.2.13-.01,0-.19-.17-.08-.06s.23.22.34.33c.18.17-.12-.23.03.06.03.06.06.12.09.17.09.14-.08-.13-.06-.13,0,0,.05.16.05.19.07.22-.1-.07-.01-.11-.02,0,.03.2,0,.19.03.01,0-.36,0-.11,0,.2,0,.02.04-.07-.04.06-.07.13-.11.19.03-.05.21-.22.01-.02-.05.05-.09.09-.14.14-.16.16.17-.11-.03.03-.06.04-.13.09-.2.13s-.14.08-.21.12c0,0-.34.17-.16.09.14-.07-.24.09-.31.11-.17.06-.34.11-.52.15-.16.04-.31.07-.47.1-.04,0-.33.05-.14.03s-.18.02-.22.02c-.34.03-.69.04-1.04.02-.16,0-.31-.02-.47-.03-.07,0-.28-.06.01,0-.1-.02-.21-.04-.31-.06-.15-.03-.3-.07-.45-.12-.1-.03-.2-.07-.3-.1-.03-.01-.26-.12-.06-.02-.34-.16-.66-.35-.96-.57.22.16-.07-.07-.14-.13-.1-.1-.2-.2-.3-.3-.06-.07-.13-.13-.18-.2.05.06.11.17-.03-.06-.03-.05-.05-.2-.04-.07.02.23.02.36-.05.61.04-.12.16-.12-.03.03.03-.02.28-.23.13-.13-.14.1.05-.02.06-.03.1-.06.2-.12.31-.18.33-.18.66-.36,1-.52.08-.04.15-.07.23-.11.37-.18-.16.05.06-.03.19-.07.38-.14.58-.2.18-.05.37-.1.56-.13.29-.06.12-.02.05-.01.16-.02.32-.03.48-.03.78-.03,1.54-.67,1.5-1.5-.04-.78-.66-1.54-1.5-1.5Z"/>
    </g>
    <g>
      <path class="cls-2" d="M50.36,20.86c-.59.18-1.18.36-1.72.57-1.53.62-2.64,1.58-2.76,2.62s.83,2.13,2.49,2.63c1.64.49,3.8.34,5.26-.3s2.2-1.72,2.01-2.74-1.24-1.97-2.73-2.59c-.72-.3-1.72-.53-2.5-.27"/>
      <path class="cls-2" d="M49.96,19.41c-2.09.63-4.71,1.55-5.45,3.87s1.3,4.14,3.29,4.79,4.59.5,6.57-.4,3.52-3.19,2.34-5.38c-.57-1.06-1.61-1.85-2.67-2.36-1.24-.6-2.67-1-4.04-.6-.78.23-1.26,1.06-1.05,1.85s1.06,1.28,1.85,1.05c.09-.03.18-.06.28-.07-.04,0-.2.02-.03.02.07,0,.51.02.29,0,.2.03.41.08.6.14.07.02.52.18.35.11.35.14.69.33,1,.54.08.05.17.11.25.17-.06-.04-.17-.15.04.04.13.12.26.25.39.39-.18-.2.04.07.1.15.03.04.14.27.06.09-.08-.17,0,0,0,.04.01.07.04.15.05.22-.02-.07,0-.32-.03-.07,0,.04-.02.23,0,.02.03-.24-.03.08-.04.13-.03.12-.12.14.02-.04-.04.05-.05.11-.09.16-.03.04-.18.24-.07.1s-.04.03-.05.05c-.07.06-.13.13-.2.19-.03.03-.22.16-.04.04-.17.12-.35.23-.53.32-.1.05-.2.1-.3.14.03-.01.2-.08.04-.02s-.32.11-.48.16c-.19.05-.39.1-.59.14-.08.02-.15.03-.23.04-.15.03.11,0-.14.02-.37.04-.74.06-1.11.05-.21,0-.42-.02-.63-.03,0,0-.26-.03-.11,0s-.22-.04-.26-.05c-.35-.07-.71-.16-1.05-.3.17.07-.26-.15-.32-.18-.06-.04-.12-.08-.18-.11-.14-.09.12.13-.07-.05-.1-.1-.2-.21-.31-.31-.13-.12.06.19.03.02,0-.04-.06-.11-.08-.14-.14-.23.01,0,.02.06,0-.03-.07-.2-.05-.2,0,0,.04.32.02.15-.02-.22.01-.12-.03.04.02-.07.04-.14.05-.21.04-.18.04-.04-.02.04.04-.05.08-.14.12-.2.12-.23-.09.07.03-.04.13-.12.25-.26.38-.38.17-.16-.17.11.03-.03.1-.07.2-.14.31-.21.8-.5,1.55-.71,2.52-1.01.78-.23,1.27-1.05,1.05-1.85s-1.07-1.28-1.85-1.05h0Z"/>
    </g>
  </g>
  <g>
    <path class="cls-4" d="M79.08,26.58h-5.1v-14.31c.22-.06.53-.12.94-.18.41-.06.85-.09,1.33-.09,1,0,1.72.17,2.16.5.44.33.66.97.66,1.9v12.18ZM73.98,23.91h5.1v7.89c-.22.06-.54.12-.95.18-.41.06-.85.09-1.33.09-.98,0-1.69-.17-2.15-.51-.45-.34-.67-.97-.67-1.89v-5.76ZM88.32,25.68h-5.1v-2.67c0-.82-.21-1.4-.61-1.73-.41-.33-.92-.5-1.52-.5s-1.13.11-1.59.33c-.46.22-.86.46-1.2.72v-4.11c.46-.24,1.01-.45,1.65-.65.64-.19,1.34-.28,2.1-.28,1.96,0,3.5.49,4.6,1.48,1.11.99,1.67,2.46,1.67,4.42v2.97ZM83.22,23.91h5.1v7.89c-.22.06-.54.12-.94.18-.41.06-.85.09-1.33.09-.98,0-1.7-.17-2.15-.51-.45-.34-.68-.97-.68-1.89v-5.76Z"/>
    <path class="cls-4" d="M106.26,24.54c0,1.6-.33,2.98-.98,4.14-.65,1.16-1.56,2.05-2.73,2.69-1.17.63-2.56.94-4.15.94s-2.96-.31-4.14-.93c-1.18-.62-2.1-1.51-2.75-2.67-.65-1.16-.97-2.55-.97-4.17s.33-2.95.99-4.11c.66-1.16,1.58-2.06,2.76-2.69,1.18-.63,2.55-.94,4.11-.94s2.96.32,4.12.96,2.08,1.54,2.75,2.7c.66,1.16.99,2.52.99,4.08ZM98.4,20.79c-.82,0-1.47.33-1.94.98-.47.65-.71,1.57-.71,2.77s.23,2.18.69,2.82c.46.64,1.11.96,1.95.96s1.49-.33,1.95-.98c.46-.65.69-1.58.69-2.81s-.24-2.1-.71-2.76c-.47-.66-1.12-.99-1.94-.99Z"/>
    <path class="cls-4" d="M114.08,32.04c-.55-.16-1.07-.35-1.54-.57v-4.26c.34.26.73.5,1.17.72.44.22.94.33,1.5.33,1,0,1.76-.33,2.29-.98.53-.65.79-1.59.79-2.83,0-.86-.11-1.56-.33-2.08-.22-.53-.54-.92-.97-1.19-.43-.26-.97-.39-1.61-.39-.38,0-.73.04-1.05.14-.32.09-.59.19-.81.31v8.94h-5.07v-9.75c0-.54.11-.99.34-1.35s.54-.67.95-.93c.62-.4,1.42-.72,2.4-.97s2.06-.38,3.24-.38c1.62,0,3.04.27,4.26.79s2.17,1.36,2.85,2.49c.68,1.13,1.02,2.59,1.02,4.37s-.33,3.13-.99,4.29c-.66,1.16-1.55,2.04-2.68,2.64-1.13.6-2.42.9-3.86.9-.72,0-1.35-.08-1.9-.24ZM113.55,37.17c-.22.06-.54.12-.95.18s-.85.09-1.33.09c-.98,0-1.69-.17-2.15-.51-.45-.34-.67-.97-.67-1.89v-6.09h5.1v8.22Z"/>
    <path class="cls-4" d="M131.7,16.8c2.18,0,3.92.45,5.24,1.33,1.31.89,1.96,2.27,1.96,4.15v6.72c0,.52-.15.94-.43,1.27-.29.33-.64.61-1.04.85-.64.38-1.42.67-2.34.87-.92.2-1.97.3-3.15.3-2.1,0-3.79-.4-5.05-1.21-1.27-.81-1.91-2.04-1.91-3.68,0-1.38.42-2.44,1.25-3.18.83-.74,2.09-1.2,3.79-1.38l3.93-.42v-.21c0-.58-.25-.99-.76-1.25-.51-.25-1.25-.38-2.21-.38-.74,0-1.48.08-2.21.24-.73.16-1.38.36-1.96.6-.26-.18-.48-.45-.66-.83-.18-.37-.27-.75-.27-1.15,0-.96.51-1.64,1.53-2.04.58-.22,1.26-.38,2.06-.48.79-.1,1.53-.15,2.23-.15ZM131.94,28.59c.34,0,.71-.03,1.12-.1.41-.07.71-.16.92-.28v-2.4l-2.16.18c-.56.04-1.02.16-1.38.36-.36.2-.54.5-.54.9s.15.73.46.97c.31.25.83.38,1.58.38Z"/>
  </g>
  <g>
    <g>
      <path class="cls-3" d="M142,20.8c-.31-.17-.73-.55-.98-1.52-.28-1.06-.18-2.15-.28-3.44-.14-1.73-.61-3-1.06-4.2,1.33-.15,2.54,1.38,3.21,4.03.09.35.29.95.28,1.93,0,.95-.19,1.76-.29,2.14"/>
      <path class="cls-3" d="M142.75,19.5c-.27-.15.15.19.02.04-.03-.04-.08-.08-.12-.12-.18-.17.07.17.03.03-.02-.05-.08-.15-.11-.2-.11-.14.05.19,0,0s-.12-.39-.17-.59c-.02-.1-.04-.19-.05-.29-.03-.16,0,.16,0-.12-.01-.2-.03-.4-.04-.61-.02-.46-.02-.92-.05-1.38-.09-1.76-.53-3.39-1.14-5.03l-1.45,1.9c.07,0,.14,0,.2,0,.25-.02-.04.11-.12-.02.01.02.13.03.16.04.24.08-.23-.15-.09-.04.09.07.27.1.34.21-.07-.1-.22-.19-.05-.02.05.05.1.09.14.14.06.06.12.13.17.2-.13-.14-.1-.14,0,0s.2.3.28.46c.1.17.18.35.26.53.06.14-.05-.16.04.1.04.12.09.23.13.35.13.38.24.77.34,1.17.03.13.07.26.1.4.02.09.03.19.05.27.04.14-.01-.24,0,.05.03.49.03.98-.02,1.47.03-.24-.01.07-.02.11-.02.11-.04.21-.06.32-.03.16-.07.32-.11.48-.2.76.25,1.66,1.05,1.85s1.63-.23,1.85-1.05c.55-2.12.36-4.25-.43-6.28-.69-1.75-2.03-3.9-4.21-3.72-.88.08-1.82.91-1.45,1.9.29.76.56,1.53.75,2.32.05.22.1.44.14.66.02.13.05.26.07.39-.02-.16,0,.03.01.09.06.53.08,1.06.09,1.6.05,1.77.22,4.02,1.95,5,.68.39,1.67.18,2.05-.54s.19-1.64-.54-2.05h0Z"/>
    </g>
    <g>
      <path class="cls-1" d="M142.06,20.82c-.01,1.26.09,2.45.18,3.63.37,4.39.78,8.75,1.4,12.82s1.46,7.88,2.63,10.88c.05.13.14.26.2.11.02-.06.04-.14.05-.21.13-.93.07-1.86,0-2.74-.65-8.71-1.92-16.73-3.43-24.29-.1-.52-.22-1.07-.44-1.24s-.56.28-.58.92"/>
      <path class="cls-1" d="M140.56,20.82c0,4.99.7,10.09,1.37,15.02.33,2.43.73,4.85,1.27,7.25.44,1.92.84,4.27,1.86,5.98.44.73,1.32.9,2.05.54,1.27-.62,1-2.71.93-3.86-.1-1.74-.27-3.48-.45-5.21-.33-3.27-.76-6.52-1.26-9.77s-1.03-6.22-1.64-9.31c-.23-1.15-.4-2.86-1.8-3.16-1.54-.33-2.18,1.17-2.33,2.4-.24,1.91,2.76,1.89,3,0l-.31.35-1.16.15.14.03-.9-.69c.53.7.54,2.14.71,3,.22,1.14.43,2.29.63,3.43.39,2.2.74,4.41,1.06,6.62s.61,4.63.85,6.96c.13,1.27.25,2.53.35,3.8.09,1.12.32,2.41.07,3.52l.69-.9-.11.05,2.05.54c-.47-.8-.68-1.9-.93-2.79-.27-.96-.51-1.93-.73-2.91-.5-2.27-.88-4.57-1.19-6.88-.62-4.65-1.25-9.46-1.26-14.16,0-1.93-3-1.93-3,0h0Z"/>
    </g>
  </g>
  <g>
    <path class="cls-4" d="M162.52,22.44v2.76h-5.1v-2.61c0-.62-.18-1.07-.55-1.36-.37-.29-.86-.44-1.46-.44-.4,0-.78.05-1.12.15-.35.1-.69.23-1,.39v3.87h-5.1v-4.56c0-.54.12-.98.35-1.32.23-.34.54-.65.94-.93.68-.48,1.54-.86,2.58-1.16,1.04-.29,2.18-.43,3.42-.43,2.26,0,4,.49,5.22,1.48,1.22.99,1.83,2.38,1.83,4.15ZM148.18,23.91h5.1v7.89c-.22.06-.54.12-.95.18s-.85.09-1.33.09c-.98,0-1.7-.17-2.14-.51-.45-.34-.68-.97-.68-1.89v-5.76ZM157.42,23.91h5.1v7.89c-.22.06-.54.12-.95.18-.41.06-.86.09-1.33.09-.98,0-1.7-.17-2.15-.51-.45-.34-.67-.97-.67-1.89v-5.76Z"/>
    <path class="cls-4" d="M170.47,24.63h-5.04v-10.77c.22-.06.54-.12.95-.19.41-.07.84-.1,1.3-.1.98,0,1.69.17,2.13.51.44.34.66.97.66,1.89v8.67ZM165.43,23.91h5.04v2.91c0,.5.17.87.5,1.09.33.23.79.35,1.39.35.3,0,.61-.02.93-.08.32-.05.6-.11.84-.19.18.2.33.44.46.72.13.28.2.61.2.99,0,.74-.29,1.35-.86,1.84-.57.49-1.58.74-3.01.74-1.76,0-3.12-.4-4.07-1.2s-1.42-2.1-1.42-3.9v-3.27ZM168.73,21.48v-3.9h5.67c.12.2.24.47.34.81.11.34.17.71.17,1.11,0,.7-.15,1.21-.46,1.52s-.72.46-1.25.46h-4.47Z"/>
    <path class="cls-4" d="M179.44,26.82l-.18-3.36,6.93-1.14c-.04-.4-.24-.8-.6-1.2-.36-.4-.92-.6-1.68-.6-.8,0-1.47.26-2,.78-.53.52-.82,1.26-.86,2.22l.18,2.52c.2.92.65,1.56,1.36,1.92.71.36,1.5.54,2.39.54s1.64-.11,2.4-.33c.76-.22,1.37-.46,1.83-.72.32.2.59.48.81.84.22.36.33.74.33,1.14,0,.66-.25,1.21-.74,1.63-.49.43-1.17.75-2.03.95-.86.2-1.85.3-2.97.3-1.56,0-2.96-.3-4.21-.88-1.25-.59-2.24-1.48-2.97-2.66-.73-1.18-1.1-2.66-1.1-4.44,0-1.32.21-2.46.65-3.42.43-.96,1-1.74,1.72-2.34.72-.6,1.53-1.04,2.42-1.34.89-.29,1.8-.43,2.75-.43,1.42,0,2.66.27,3.72.82,1.06.55,1.89,1.3,2.49,2.25.6.95.9,2.05.9,3.29,0,.68-.19,1.2-.57,1.56-.38.36-.91.59-1.59.69l-9.39,1.41Z"/>
    <path class="cls-4" d="M202.48,27.9v-8.7h5.07v9.42c0,.5-.1.93-.32,1.29-.21.36-.54.68-1,.96-.58.38-1.33.72-2.25,1s-1.97.44-3.15.44c-1.74,0-3.23-.29-4.47-.87-1.24-.58-2.19-1.44-2.85-2.59-.66-1.15-.99-2.56-.99-4.25s.34-3.21,1.02-4.37c.68-1.15,1.6-2.01,2.77-2.58,1.17-.57,2.48-.85,3.92-.85.7,0,1.31.07,1.83.21.52.14.95.3,1.29.48v4.14c-.26-.2-.59-.39-1-.57s-.88-.27-1.39-.27c-.68,0-1.27.14-1.75.42-.49.28-.87.7-1.12,1.26-.26.56-.39,1.27-.39,2.13,0,1.26.27,2.19.83,2.79.55.6,1.31.9,2.29.9.36,0,.69-.04.99-.13.3-.09.53-.17.69-.26ZM207.55,20.16h-5.1v-7.89c.22-.06.53-.12.94-.18.41-.06.86-.09,1.33-.09,1,0,1.72.17,2.16.5.44.33.66.97.66,1.9v5.76Z"/>
  </g>
</svg>