<?xml version="1.0" encoding="UTF-8"?>
<svg id="Layer_1" data-name="Layer 1" xmlns="http://www.w3.org/2000/svg" viewBox="0 0 73.85 35.99">
  <g>
    <path d="M18.47,1.65c-5.24-.67-11.32.89-14.31,3.28-1.4,1.12-3.98,2.72-1.89,6.96,2.98,6.05,6.05,12.11,9.32,18.12,1.27,2.17,4.34,4.52,8.87,4.47,9.19-.38,7.96-8.06,13.66-8.88,4.11-.29,5.37,2.41,6.51,4.07,1.89,2.78,6.84,5.22,12.47,4.54,2.82-.28,4.82-1.49,5.98-2.88,6.1-6.72,10.4-13.96,12.75-21.37.64-2.03,1.29-4.58-1.82-6.09-6.65-2.82-19.84-3.8-22.7,1.76-1.24,2.32-.37,4.81-.97,7.17-.17,1.23-1.66,3.38-4.43,2.51-1.63-.8-2.24-2.17-4.49-2.66-2.13-.59-4.92-.33-6.51.67-1.25.65-2.05,2.34-4.17,1.99-1.07-.24-1.51-.98-1.72-1.57-1.05-2.92,1.83-4.15,1.17-7.18-.15-.71-.49-2.11-2.45-3.31-1.93-1.18-4.39-1.51-5.27-1.62Z" fill="#a1867f"/>
    <path d="M18.47.15c-4.14-.48-8.49.18-12.31,1.87C3.82,3.07.84,5,.16,7.67c-.51,1.99.27,3.88,1.14,5.64,1.14,2.31,2.29,4.62,3.46,6.92s2.29,4.47,3.46,6.69c.97,1.84,1.83,3.88,3.25,5.44,4.61,5.07,13.44,4.79,17.73-.47,1.23-1.51,2.3-3.8,4.22-4.55,1.25-.49,2.85-.26,3.91.56.95.73,1.48,1.83,2.17,2.77,4.55,6.21,15.8,7.19,20.96,1.4,3.1-3.49,5.92-7.25,8.24-11.31,2.02-3.53,3.88-7.42,4.87-11.38.37-1.5.47-3.13-.31-4.52-.87-1.56-2.46-2.31-4.07-2.88-3.1-1.1-6.45-1.65-9.73-1.81-6.02-.3-13.99.98-14.36,8.42-.07,1.46.4,3.69-.69,4.88-1.26,1.37-2.68-.06-3.75-.87-2.94-2.23-7.87-2.39-10.93-.28-.75.52-2.38,2.49-3.24,1.1-.75-1.22.5-2.81.91-3.92,1.27-3.42-.86-6.67-3.97-8.06-1.59-.71-3.25-1.05-4.96-1.28-1.91-.25-1.89,2.76,0,3,2.32.3,6.55,1.33,6.31,4.5-.1,1.29-1.06,2.39-1.35,3.64-.35,1.5-.03,3.3,1.07,4.44,1.22,1.25,3.17,1.43,4.71.68,1.28-.62,2.1-1.82,3.5-2.24,1.67-.5,3.79-.49,5.38.29,1.49.74,2.42,2.17,4.15,2.47,3.29.56,5.41-1.95,5.76-4.96.22-1.95-.32-4.21.82-5.95.55-.84,1.45-1.41,2.36-1.81,2.55-1.11,5.55-1.19,8.28-1.06,2.98.15,5.98.68,8.8,1.66,1.16.4,2.49.91,2.6,2.31s-.65,3.06-1.13,4.36c-1.4,3.83-3.31,7.47-5.55,10.88-1.24,1.89-2.59,3.71-4.03,5.46-1.15,1.38-2.29,3.01-3.88,3.91-3.3,1.87-8.09,1.34-11.35-.38-1.28-.68-2.41-1.55-3.21-2.77-.66-1-1.32-2.03-2.24-2.81-2.22-1.88-5.58-2.25-8.11-.75-1.83,1.08-2.86,2.94-4.14,4.57-1.62,2.07-3.72,3.23-6.37,3.39-3.27.2-6.58-1.21-8.19-4.14-2.3-4.19-4.47-8.45-6.61-12.72-.98-1.96-2.37-4.04-2.92-6.17-.33-1.27.07-2.2,1.01-3.05,2.34-2.12,5.42-3.16,8.5-3.64,1.93-.3,3.9-.32,5.84-.09s1.9-2.78,0-3Z" fill="#a1867f"/>
  </g>
  <g>
    <path d="M62.63,5.7c-1.8-.34-3.33-.01-3.83.1-.66.15-2.31.48-2.78,1.34-.35.64.06,1.32.49,1.94.42.61.9,1.25,1.86,1.64,1.26.51,2.98.45,4.54.36.42-.02.85-.05,1.2-.18.46-.17.65-.43.75-.57.99-1.43,1.48-2.15.99-2.91-.79-1.23-3.02-1.67-3.22-1.71Z" fill="#f4a6a6"/>
    <path d="M63.02,4.25c-1.97-.35-4.08-.22-5.97.46-1.12.4-2.29,1.07-2.59,2.32-.33,1.41.62,2.81,1.52,3.81,1.77,1.96,4.68,1.88,7.1,1.72.7-.05,1.43-.13,2.05-.5.57-.34.91-.83,1.28-1.36.64-.94,1.3-1.98,1.07-3.18-.38-1.93-2.71-2.93-4.45-3.26-.77-.15-1.66.21-1.85,1.05-.17.74.22,1.69,1.05,1.85.38.07.76.18,1.13.31.11.04.46.19.16.06.14.07.29.13.42.21s.27.17.41.25c-.23-.13-.09-.08-.02-.02.08.08.16.17.25.24-.3-.24,0-.1-.03-.03l.05.08-.07-.19c.02.05.04.11.05.17-.06-.39-.03-.25-.04-.14.02-.42,0-.09-.06.07.09-.3.06-.13,0-.05-.07.11-.13.23-.19.34-.23.37-.53.72-.74,1.1-.09.17.09-.12.1-.13-.17.18.03-.03.07-.03-.11-.01-.15.1-.02.04,0,0-.42.12-.26.09-.93.17-1.98.13-2.92.09-.78-.04-1.44-.12-2.1-.57.2.14-.18-.18-.23-.22-.07-.07-.36-.44-.18-.2-.23-.31-.53-.76-.64-1.02.06.14-.06.19.01-.03-.01.04-.07.5-.02.22,0,.02-.22.28-.03.07.07-.08.19-.09-.04.03.14-.07.27-.16.41-.23.07-.04.26-.09-.02,0,.1-.03.19-.07.29-.1.56-.19,1.15-.32,1.74-.42.07-.01.14-.02.21-.03.16-.03-.27.02.03,0,.24-.02.49-.04.73-.05.52-.02,1.11.01,1.55.09.77.14,1.65-.21,1.85-1.05.17-.73-.22-1.7-1.05-1.85Z" fill="#f4a6a6"/>
  </g>
  <g>
    <path d="M58.63,13.61c-1.44.04-2.45.57-3.39,1.07-.64.33-1.19.64-1.38,1.13-.18.46.12.93.5,1.35.6.67,1.44,1.31,2.65,1.64,1.59.44,3.88.23,5.3-.63,1.52-.92,1.34-2.19.6-3.01-.75-.84-2.41-1.61-4.27-1.55Z" fill="#b4e1c5"/>
    <path d="M58.63,12.11c-1.16.05-2.2.34-3.25.82-.84.38-1.8.82-2.41,1.53-2,2.29.96,4.76,2.97,5.57,1.81.72,4.09.68,5.91,0,1.04-.38,2.1-.97,2.67-1.96s.55-2.09.07-3.09c-1.01-2.07-3.82-2.91-5.95-2.87-.78.01-1.54.68-1.5,1.5s.66,1.51,1.5,1.5c.22,0,.43,0,.65.01.08,0,.16.01.24.02.26.03-.19-.04.06.01.39.08.76.2,1.14.32.23.07-.18-.09.03,0,.06.03.12.06.18.09.15.08.3.16.45.25.07.04.13.1.2.13-.01,0-.19-.17-.08-.06s.23.22.34.33c.18.17-.12-.23.03.06.03.06.06.12.09.17.09.14-.08-.13-.06-.13,0,0,.05.16.05.19.07.22-.1-.07-.01-.11-.02,0,.03.2,0,.19.03.01,0-.36,0-.11,0,.2,0,.02.04-.07-.04.06-.07.13-.11.19.03-.05.21-.22.01-.02-.05.05-.09.09-.14.14-.16.16.17-.11-.03.03-.06.04-.13.09-.2.13s-.14.08-.21.12c0,0-.34.17-.16.09.14-.07-.24.09-.31.11-.17.06-.34.11-.52.15-.16.04-.31.07-.47.1-.04,0-.33.05-.14.03s-.18.02-.22.02c-.34.03-.69.04-1.04.02-.16,0-.31-.02-.47-.03-.07,0-.28-.06.01,0-.1-.02-.21-.04-.31-.06-.15-.03-.3-.07-.45-.12-.1-.03-.2-.07-.3-.1-.03-.01-.26-.12-.06-.02-.34-.16-.66-.35-.96-.57.22.16-.07-.07-.14-.13-.1-.1-.2-.2-.3-.3-.06-.07-.13-.13-.18-.2.05.06.11.17-.03-.06-.03-.05-.05-.2-.04-.07.02.23.02.36-.05.61.04-.12.16-.12-.03.03.03-.02.28-.23.13-.13-.14.1.05-.02.06-.03.1-.06.2-.12.31-.18.33-.18.66-.36,1-.52.08-.04.15-.07.23-.11.37-.18-.16.05.06-.03.19-.07.38-.14.58-.2.18-.05.37-.1.56-.13.29-.06.12-.02.05-.01.16-.02.32-.03.48-.03.78-.03,1.54-.67,1.5-1.5-.04-.78-.66-1.54-1.5-1.5Z" fill="#b4e1c5"/>
  </g>
  <g>
    <path d="M50.36,20.86c-.59.18-1.18.36-1.72.57-1.53.62-2.64,1.58-2.76,2.62s.83,2.13,2.49,2.63c1.64.49,3.8.34,5.26-.3s2.2-1.72,2.01-2.74-1.24-1.97-2.73-2.59c-.72-.3-1.72-.53-2.5-.27" fill="#f9e79f"/>
    <path d="M49.96,19.41c-2.09.63-4.71,1.55-5.45,3.87s1.3,4.14,3.29,4.79,4.59.5,6.57-.4,3.52-3.19,2.34-5.38c-.57-1.06-1.61-1.85-2.67-2.36-1.24-.6-2.67-1-4.04-.6-.78.23-1.26,1.06-1.05,1.85s1.06,1.28,1.85,1.05c.09-.03.18-.06.28-.07-.04,0-.2.02-.03.02.07,0,.51.02.29,0,.2.03.41.08.6.14.07.02.52.18.35.11.35.14.69.33,1,.54.08.05.17.11.25.17-.06-.04-.17-.15.04.04.13.12.26.25.39.39-.18-.2.04.07.1.15.03.04.14.27.06.09-.08-.17,0,0,0,.04.01.07.04.15.05.22-.02-.07,0-.32-.03-.07,0,.04-.02.23,0,.02.03-.24-.03.08-.04.13-.03.12-.12.14.02-.04-.04.05-.05.11-.09.16-.03.04-.18.24-.07.1s-.04.03-.05.05c-.07.06-.13.13-.2.19-.03.03-.22.16-.04.04-.17.12-.35.23-.53.32-.1.05-.2.1-.3.14.03-.01.2-.08.04-.02s-.32.11-.48.16c-.19.05-.39.1-.59.14-.08.02-.15.03-.23.04-.15.03.11,0-.14.02-.37.04-.74.06-1.11.05-.21,0-.42-.02-.63-.03,0,0-.26-.03-.11,0s-.22-.04-.26-.05c-.35-.07-.71-.16-1.05-.3.17.07-.26-.15-.32-.18-.06-.04-.12-.08-.18-.11-.14-.09.12.13-.07-.05-.1-.1-.2-.21-.31-.31-.13-.12.06.19.03.02,0-.04-.06-.11-.08-.14-.14-.23.01,0,.02.06,0-.03-.07-.2-.05-.2,0,0,.04.32.02.15-.02-.22.01-.12-.03.04.02-.07.04-.14.05-.21.04-.18.04-.04-.02.04.04-.05.08-.14.12-.2.12-.23-.09.07.03-.04.13-.12.25-.26.38-.38.17-.16-.17.11.03-.03.1-.07.2-.14.31-.21.8-.5,1.55-.71,2.52-1.01.78-.23,1.27-1.05,1.05-1.85s-1.07-1.28-1.85-1.05h0Z" fill="#f9e79f"/>
  </g>
</svg>